<svg  viewBox="0 0 356 416" fill="none" xmlns="http://www.w3.org/2000/svg">
<path d="M288.634 0C252.164 0 222.206 29.6856 222.206 66.402V190.092L259.979 149.209L260.239 66.402C260.239 50.778 273.004 38.0184 288.634 38.0184C304.264 38.0184 317.028 50.778 317.028 66.402V349.196C317.028 364.82 304.264 377.58 288.634 377.58C273.004 377.58 260.239 364.82 260.239 349.196V276.024L222.467 287.221V349.457C222.467 385.913 252.164 415.859 288.894 415.859C325.625 415.859 355.322 386.173 355.322 349.457V66.1416C355.061 29.6856 325.104 0 288.634 0Z" fill="black"/>
<path d="M260.24 342.165V301.022C250.601 306.23 238.618 309.876 222.467 311.699V348.936C222.467 349.196 222.467 349.457 222.467 349.717C236.013 348.676 247.996 346.332 258.416 342.947C258.937 342.686 259.458 342.426 260.24 342.165Z" fill="#000000"/>
<path d="M355.062 165.875L341.255 182.54C339.692 200.768 332.659 213.528 317.289 243.474V302.845C317.81 302.324 317.81 302.324 318.331 301.804C321.718 298.418 325.104 295.033 328.751 291.388C339.432 280.972 348.289 267.17 355.062 252.328V165.875Z" fill="#000000"/>
<path d="M355.062 173.166C347.247 221.861 312.34 305.71 230.803 318.469C148.225 331.489 120.872 317.428 96.9061 303.887L110.713 272.118C111.234 272.378 153.435 294.252 223.249 280.19C289.416 266.65 319.894 185.405 318.071 145.564L354.801 165.094" fill="black"/>
<path d="M167.762 284.617C148.225 283.576 133.376 280.19 123.738 277.066C121.654 276.805 119.309 276.545 116.965 276.284L113.578 314.042C126.864 319.25 143.796 323.156 167.762 323.677V284.617Z" fill="#000000"/>
<path d="M259.979 113.794C237.316 101.556 204.232 91.1397 132.595 99.2121V66.6621C132.595 30.2061 102.898 0.260071 66.167 0.260071C29.4365 0.260071 0 29.9457 0 66.6621V349.456C0 385.913 29.697 415.859 66.4275 415.859C103.158 415.859 132.855 386.173 132.855 349.456V285.658L133.376 280.45C133.637 275.242 134.418 269.253 136.242 263.004C141.973 242.953 155.779 230.974 178.443 226.808C223.249 218.215 243.307 196.862 251.904 180.457C262.063 161.708 260.24 144.782 259.979 142.959L255.29 143.48L260.24 135.408L259.979 113.794ZM66.167 38.2785C81.797 38.2785 94.5615 51.0381 94.5615 66.6621V109.888C70.856 120.825 52.1 138.532 37.7725 158.323V66.6621C37.7725 51.0381 50.537 38.2785 66.167 38.2785ZM170.888 189.31C133.897 196.341 108.629 219.256 98.99 253.89C96.1245 264.566 94.822 274.461 94.5615 282.534V284.356C94.5615 286.96 94.5615 289.304 94.5615 291.387V349.456C94.5615 365.08 81.797 377.84 66.167 377.84C50.537 377.84 37.7725 365.08 37.7725 349.456V268.993C37.7725 229.152 71.377 148.948 138.065 138.272C186.518 130.46 221.165 139.314 238.358 145.563L221.946 147.646V147.386C222.467 150.511 223.249 179.415 170.888 189.31Z" fill="black"/>
</svg>
